<svg width="982" height="503" viewBox="0 0 982 503" fill="none" xmlns="http://www.w3.org/2000/svg">
<g opacity="0.29827">
<path d="M1008.08 170.448L443.182 -349.858V-740.19L28.1096 -763C24.9043 -755.456 4.36709 -733.714 7.57176 -721.596C11.43 -707.102 30.8387 -711.735 36.4776 -702.409C43.0661 -691.42 31.7291 -646.749 28.3457 -633.86C21.8759 -609.445 7.09676 -589.665 2.82235 -565.25C-4.35982 -524.263 10.1824 -527.53 37.7242 -501.927C84.141 -458.742 46.9244 -413.952 58.6176 -363.223C68.1146 -321.878 109.605 -300.554 124.8 -259.211C136.553 -227.37 152.697 -219.233 177.746 -195.947C177.153 -210.084 164.51 -251.785 188.253 -248.102C211.817 -244.478 202.736 -209.669 207.247 -195.115C211.045 -182.997 237.933 -158.761 215.616 -147.593C208.196 -143.91 187.066 -158.582 178.577 -162.503C184.572 -143.791 180.774 -124.367 190.271 -106.487C201.608 -85.162 213.835 -93.3588 228.853 -81.7754C244.344 -69.8355 242.683 -56.1137 235.797 -38.0554C228.615 -19.2247 221.196 -22.1352 232.592 0.55658C240.843 16.9512 254.85 37.7421 266.9 50.2164C273.904 57.4634 281.502 59.1267 288.506 68.3932C294.323 76.1155 292.067 86.2142 299.012 93.1638C310.883 105.104 331.006 105.282 340.384 120.904C350.831 138.309 338.96 151.437 369.706 149.833C371.309 184.643 377.897 216.185 377.541 250.994C394.695 257.825 422.414 249.687 440.399 246.063C458.266 270.18 481.355 253.429 501.774 266.558C510.678 272.26 508.837 286.517 514.239 291.506C525.339 301.723 533.529 295.308 547.301 298.872C557.51 301.486 565.404 308.97 575.138 311.703C584.338 314.257 599.475 308.258 606.301 316.396C614.492 326.138 600.78 343.958 613.127 351.799C623.395 358.333 638.115 342.77 648.088 345.027C659.721 347.7 693.079 378.174 701.271 388.212C710.59 399.677 719.969 421.062 725.25 435.793C733.501 458.841 732.373 470.127 749.408 486.998C760.27 497.75 749.942 498.522 767.63 501.67C779.204 503.749 794.518 495.374 806.212 494.067C830.549 491.394 855.122 496.027 879.102 491.453C901.421 487.176 922.729 480.166 945.64 476.899C965.465 474.048 1000.37 476.246 1017.94 466.801C1036.99 456.643 1038.71 433.654 1011.17 437.932C1008.97 423.26 1018.77 403.003 1007.85 392.847C1023.04 372.056 1028.56 357.384 1030.93 331.959C1032 320.792 1032.48 308.436 1038 299.05C1043.4 289.783 1058.59 284.259 1061.56 276.299C1066.13 263.943 1058.83 258.419 1053.25 251.528C1049.69 247.073 1039.54 249.212 1036.63 245.291C1031.23 238.103 1036.57 230.678 1033.6 223.431C1024.94 202.462 1014.61 194.205 1008.08 170.444C1008.26 174.424 1008.44 178.463 1008.2 182.384" stroke="white" stroke-width="2" stroke-linecap="round" stroke-linejoin="round"/>
</g>
<path d="M729.114 90.9394C720.546 114.321 740.614 122.526 756.675 137.807C761.434 142.336 761.888 149.817 756.879 154.342C746.107 164.074 705.264 149.917 707.854 162.745C710.53 175.994 745.061 194.531 746.618 195.799C760.284 206.932 764.735 235.174 757.208 250.658C751.852 261.676 716.342 257.962 705.172 254.293C632.024 230.266 664.985 233.131 582.817 225.67C576.527 225.099 569.935 224.806 563.894 226.65C557.671 228.549 557.869 236.339 559.957 240.55C566.876 254.506 597.849 278.178 589.514 296.523C586.956 302.152 580.963 305.707 578.264 311.27C576.151 315.627 576.385 320.772 575.445 325.523" stroke="white" stroke-width="2"/>
<path fill-rule="evenodd" clip-rule="evenodd" d="M573.5 333C577.09 333 580 330.09 580 326.5C580 322.91 577.09 320 573.5 320C569.91 320 567 322.91 567 326.5C567 330.09 569.91 333 573.5 333Z" fill="#4AF6CD"/>
<path fill-rule="evenodd" clip-rule="evenodd" d="M661 370C662.657 370 664 368.657 664 367C664 365.343 662.657 364 661 364C659.343 364 658 365.343 658 367C658 368.657 659.343 370 661 370Z" fill="#4AF6CD"/>
<path fill-rule="evenodd" clip-rule="evenodd" d="M725 478C726.657 478 728 476.657 728 475C728 473.343 726.657 472 725 472C723.343 472 722 473.343 722 475C722 476.657 723.343 478 725 478Z" fill="#4AF6CD"/>
<path fill-rule="evenodd" clip-rule="evenodd" d="M365 235C366.657 235 368 233.657 368 232C368 230.343 366.657 229 365 229C363.343 229 362 230.343 362 232C362 233.657 363.343 235 365 235Z" fill="#4AF6CD"/>
<path fill-rule="evenodd" clip-rule="evenodd" d="M729.5 98C733.09 98 736 95.0899 736 91.5C736 87.9101 733.09 85 729.5 85C725.91 85 723 87.9101 723 91.5C723 95.0899 725.91 98 729.5 98Z" fill="#4AF6CD"/>
<path d="M398.41 317.976L396.17 329H394.218L392.186 319.768L390.138 329H388.234L385.994 317.976H387.482L389.258 327.672L391.386 317.976H393.002L395.178 327.672L397.018 317.976H398.41ZM406.544 324.536C406.544 324.781 406.534 325.032 406.512 325.288H401.136C401.2 326.216 401.435 326.899 401.84 327.336C402.246 327.773 402.768 327.992 403.408 327.992C403.814 327.992 404.187 327.933 404.528 327.816C404.87 327.699 405.227 327.512 405.6 327.256L406.24 328.136C405.344 328.84 404.363 329.192 403.296 329.192C402.123 329.192 401.206 328.808 400.544 328.04C399.894 327.272 399.568 326.216 399.568 324.872C399.568 323.997 399.707 323.224 399.984 322.552C400.272 321.869 400.678 321.336 401.2 320.952C401.734 320.568 402.358 320.376 403.072 320.376C404.192 320.376 405.051 320.744 405.648 321.48C406.246 322.216 406.544 323.235 406.544 324.536ZM405.088 324.104C405.088 323.272 404.923 322.637 404.592 322.2C404.262 321.763 403.766 321.544 403.104 321.544C401.899 321.544 401.243 322.429 401.136 324.2H405.088V324.104ZM411.183 320.376C411.759 320.376 412.276 320.456 412.735 320.616C413.194 320.776 413.631 321.016 414.047 321.336L413.423 322.264C413.039 322.019 412.671 321.837 412.319 321.72C411.978 321.603 411.615 321.544 411.231 321.544C410.751 321.544 410.372 321.645 410.095 321.848C409.818 322.04 409.679 322.307 409.679 322.648C409.679 322.989 409.807 323.256 410.063 323.448C410.33 323.64 410.804 323.827 411.487 324.008C412.426 324.243 413.124 324.563 413.583 324.968C414.052 325.373 414.287 325.928 414.287 326.632C414.287 327.464 413.962 328.099 413.311 328.536C412.671 328.973 411.887 329.192 410.959 329.192C409.679 329.192 408.618 328.824 407.775 328.088L408.559 327.192C409.274 327.736 410.063 328.008 410.927 328.008C411.482 328.008 411.919 327.896 412.239 327.672C412.57 327.437 412.735 327.123 412.735 326.728C412.735 326.44 412.676 326.211 412.559 326.04C412.442 325.859 412.239 325.704 411.951 325.576C411.663 325.437 411.242 325.293 410.687 325.144C409.791 324.909 409.14 324.595 408.735 324.2C408.34 323.805 408.143 323.304 408.143 322.696C408.143 322.259 408.271 321.864 408.527 321.512C408.794 321.149 409.156 320.872 409.615 320.68C410.084 320.477 410.607 320.376 411.183 320.376ZM420.62 328.616C420.065 329 419.436 329.192 418.732 329.192C418.017 329.192 417.457 328.989 417.052 328.584C416.657 328.168 416.46 327.571 416.46 326.792V321.704H414.988V320.568H416.46V318.664L417.932 318.488V320.568H419.932L419.772 321.704H417.932V326.728C417.932 327.165 418.006 327.485 418.156 327.688C418.316 327.88 418.577 327.976 418.94 327.976C419.27 327.976 419.644 327.864 420.06 327.64L420.62 328.616ZM429.179 317.784C429.915 317.784 430.545 317.891 431.067 318.104C431.59 318.307 432.097 318.627 432.587 319.064L431.755 319.992C431.339 319.661 430.929 319.421 430.523 319.272C430.129 319.112 429.702 319.032 429.243 319.032C428.667 319.032 428.193 319.165 427.819 319.432C427.446 319.699 427.259 320.088 427.259 320.6C427.259 320.92 427.323 321.192 427.451 321.416C427.579 321.629 427.814 321.827 428.155 322.008C428.507 322.189 429.014 322.381 429.675 322.584C430.369 322.797 430.945 323.027 431.403 323.272C431.862 323.517 432.23 323.859 432.507 324.296C432.795 324.723 432.939 325.267 432.939 325.928C432.939 326.568 432.779 327.133 432.459 327.624C432.15 328.115 431.697 328.499 431.099 328.776C430.513 329.053 429.814 329.192 429.003 329.192C427.478 329.192 426.23 328.717 425.259 327.768L426.091 326.84C426.539 327.203 426.993 327.48 427.451 327.672C427.91 327.853 428.422 327.944 428.987 327.944C429.67 327.944 430.235 327.779 430.683 327.448C431.131 327.107 431.355 326.616 431.355 325.976C431.355 325.613 431.286 325.315 431.147 325.08C431.009 324.835 430.769 324.616 430.427 324.424C430.097 324.232 429.611 324.04 428.971 323.848C427.841 323.507 427.014 323.096 426.491 322.616C425.969 322.136 425.707 321.485 425.707 320.664C425.707 320.109 425.851 319.613 426.139 319.176C426.438 318.739 426.849 318.397 427.371 318.152C427.905 317.907 428.507 317.784 429.179 317.784ZM439.066 320.376C439.834 320.376 440.431 320.605 440.858 321.064C441.295 321.523 441.514 322.152 441.514 322.952V329H440.042V323.16C440.042 322.563 439.925 322.141 439.69 321.896C439.466 321.651 439.135 321.528 438.698 321.528C438.261 321.528 437.871 321.656 437.53 321.912C437.189 322.168 436.869 322.531 436.57 323V329H435.098V317.192L436.57 317.032V321.736C437.231 320.829 438.063 320.376 439.066 320.376ZM447.641 320.376C448.825 320.376 449.742 320.771 450.393 321.56C451.054 322.349 451.385 323.421 451.385 324.776C451.385 325.651 451.236 326.424 450.937 327.096C450.638 327.757 450.206 328.275 449.641 328.648C449.076 329.011 448.404 329.192 447.625 329.192C446.441 329.192 445.518 328.797 444.857 328.008C444.196 327.219 443.865 326.147 443.865 324.792C443.865 323.917 444.014 323.149 444.313 322.488C444.612 321.816 445.044 321.299 445.609 320.936C446.174 320.563 446.852 320.376 447.641 320.376ZM447.641 321.56C446.18 321.56 445.449 322.637 445.449 324.792C445.449 326.936 446.174 328.008 447.625 328.008C449.076 328.008 449.801 326.931 449.801 324.776C449.801 322.632 449.081 321.56 447.641 321.56ZM457.481 320.376C457.78 320.376 458.057 320.408 458.313 320.472L458.041 321.912C457.785 321.848 457.54 321.816 457.305 321.816C456.782 321.816 456.361 322.008 456.041 322.392C455.721 322.776 455.47 323.373 455.289 324.184V329H453.817V320.568H455.081L455.225 322.28C455.449 321.651 455.753 321.176 456.137 320.856C456.521 320.536 456.969 320.376 457.481 320.376ZM465.872 324.536C465.872 324.781 465.862 325.032 465.84 325.288H460.464C460.528 326.216 460.763 326.899 461.168 327.336C461.574 327.773 462.096 327.992 462.736 327.992C463.142 327.992 463.515 327.933 463.856 327.816C464.198 327.699 464.555 327.512 464.928 327.256L465.568 328.136C464.672 328.84 463.691 329.192 462.624 329.192C461.451 329.192 460.534 328.808 459.872 328.04C459.222 327.272 458.896 326.216 458.896 324.872C458.896 323.997 459.035 323.224 459.312 322.552C459.6 321.869 460.006 321.336 460.528 320.952C461.062 320.568 461.686 320.376 462.4 320.376C463.52 320.376 464.379 320.744 464.976 321.48C465.574 322.216 465.872 323.235 465.872 324.536ZM464.416 324.104C464.416 323.272 464.251 322.637 463.92 322.2C463.59 321.763 463.094 321.544 462.432 321.544C461.227 321.544 460.571 322.429 460.464 324.2H464.416V324.104ZM474.41 316.184V330.568H474.058V316.184H474.41ZM493.237 329H491.765L491.381 324.024C491.221 322.072 491.131 320.573 491.109 319.528L488.725 327.752H487.301L484.789 319.512C484.789 320.845 484.72 322.387 484.581 324.136L484.213 329H482.773L483.685 317.976H485.733L488.053 325.992L490.261 317.976H492.325L493.237 329ZM501.434 327.032C501.434 327.373 501.493 327.629 501.61 327.8C501.728 327.96 501.904 328.083 502.138 328.168L501.802 329.192C501.365 329.139 501.013 329.016 500.746 328.824C500.48 328.632 500.282 328.333 500.154 327.928C499.589 328.771 498.752 329.192 497.642 329.192C496.81 329.192 496.154 328.957 495.674 328.488C495.194 328.019 494.954 327.405 494.954 326.648C494.954 325.752 495.274 325.064 495.914 324.584C496.565 324.104 497.482 323.864 498.666 323.864H499.962V323.24C499.962 322.643 499.818 322.216 499.53 321.96C499.242 321.704 498.8 321.576 498.202 321.576C497.584 321.576 496.826 321.725 495.93 322.024L495.562 320.952C496.608 320.568 497.578 320.376 498.474 320.376C499.466 320.376 500.208 320.621 500.698 321.112C501.189 321.592 501.434 322.28 501.434 323.176V327.032ZM497.978 328.088C498.821 328.088 499.482 327.651 499.962 326.776V324.84H498.858C497.301 324.84 496.522 325.416 496.522 326.568C496.522 327.069 496.645 327.448 496.89 327.704C497.136 327.96 497.498 328.088 497.978 328.088ZM505.981 329.192C505.437 329.192 505.005 329.032 504.685 328.712C504.376 328.381 504.221 327.923 504.221 327.336V317.176L505.693 317V327.304C505.693 327.539 505.731 327.709 505.805 327.816C505.891 327.923 506.029 327.976 506.221 327.976C506.424 327.976 506.605 327.944 506.765 327.88L507.149 328.904C506.797 329.096 506.408 329.192 505.981 329.192ZM510.461 320.568V329H508.989V320.568H510.461ZM509.709 316.52C510.018 316.52 510.269 316.616 510.461 316.808C510.653 317 510.749 317.24 510.749 317.528C510.749 317.816 510.653 318.056 510.461 318.248C510.269 318.429 510.018 318.52 509.709 318.52C509.41 318.52 509.165 318.429 508.973 318.248C508.781 318.056 508.685 317.816 508.685 317.528C508.685 317.24 508.781 317 508.973 316.808C509.165 316.616 509.41 316.52 509.709 316.52ZM517.36 320.376C518.32 320.376 519.083 320.765 519.648 321.544C520.214 322.312 520.496 323.389 520.496 324.776C520.496 325.651 520.363 326.424 520.096 327.096C519.83 327.757 519.446 328.275 518.944 328.648C518.443 329.011 517.856 329.192 517.184 329.192C516.299 329.192 515.552 328.819 514.944 328.072L514.8 329H513.504V317.176L514.976 317V321.624C515.584 320.792 516.379 320.376 517.36 320.376ZM516.832 328.024C517.483 328.024 517.99 327.763 518.352 327.24C518.726 326.707 518.912 325.885 518.912 324.776C518.912 323.635 518.742 322.813 518.4 322.312C518.059 321.8 517.574 321.544 516.944 321.544C516.198 321.544 515.542 321.981 514.976 322.856V326.888C515.2 327.24 515.472 327.517 515.792 327.72C516.123 327.923 516.47 328.024 516.832 328.024ZM529.276 329H528.012L527.9 327.688C527.58 328.211 527.212 328.595 526.796 328.84C526.38 329.075 525.874 329.192 525.276 329.192C524.54 329.192 523.964 328.968 523.548 328.52C523.132 328.072 522.924 327.437 522.924 326.616V320.568H524.396V326.456C524.396 327.032 524.498 327.443 524.7 327.688C524.903 327.923 525.234 328.04 525.692 328.04C526.514 328.04 527.218 327.555 527.804 326.584V320.568H529.276V329ZM532.701 326.968C533.021 326.968 533.288 327.075 533.501 327.288C533.714 327.501 533.821 327.763 533.821 328.072C533.821 328.403 533.725 328.781 533.533 329.208L532.461 331.656H531.405L532.045 329C531.906 328.893 531.794 328.76 531.709 328.6C531.634 328.44 531.597 328.264 531.597 328.072C531.597 327.763 531.704 327.501 531.917 327.288C532.13 327.075 532.392 326.968 532.701 326.968ZM544.331 317.784C544.992 317.784 545.547 317.869 545.995 318.04C546.454 318.211 546.918 318.488 547.387 318.872L546.555 319.848C545.883 319.304 545.174 319.032 544.427 319.032C543.51 319.032 542.768 319.384 542.203 320.088C541.648 320.792 541.371 321.923 541.371 323.48C541.371 324.995 541.648 326.115 542.203 326.84C542.758 327.555 543.494 327.912 544.411 327.912C544.88 327.912 545.291 327.832 545.643 327.672C545.995 327.512 546.368 327.288 546.763 327L547.515 327.96C547.174 328.312 546.736 328.605 546.203 328.84C545.67 329.075 545.056 329.192 544.363 329.192C543.467 329.192 542.667 328.973 541.963 328.536C541.27 328.088 540.726 327.437 540.331 326.584C539.947 325.72 539.755 324.685 539.755 323.48C539.755 322.275 539.958 321.245 540.363 320.392C540.768 319.528 541.318 318.877 542.011 318.44C542.704 318.003 543.478 317.784 544.331 317.784ZM555.3 329L554.468 326.232H550.292L549.46 329H547.924L551.46 317.976H553.38L556.9 329H555.3ZM550.66 325H554.1L552.388 319.24L550.66 325Z" fill="white"/>
<path d="M598.378 82.784C599.039 82.784 599.594 82.8693 600.042 83.04C600.501 83.2107 600.965 83.488 601.434 83.872L600.602 84.848C599.93 84.304 599.221 84.032 598.474 84.032C597.557 84.032 596.815 84.384 596.25 85.088C595.695 85.792 595.418 86.9227 595.418 88.48C595.418 89.9947 595.695 91.1147 596.25 91.84C596.805 92.5547 597.541 92.912 598.458 92.912C598.927 92.912 599.338 92.832 599.69 92.672C600.042 92.512 600.415 92.288 600.81 92L601.562 92.96C601.221 93.312 600.783 93.6053 600.25 93.84C599.717 94.0747 599.103 94.192 598.41 94.192C597.514 94.192 596.714 93.9733 596.01 93.536C595.317 93.088 594.773 92.4373 594.378 91.584C593.994 90.72 593.802 89.6853 593.802 88.48C593.802 87.2747 594.005 86.2453 594.41 85.392C594.815 84.528 595.365 83.8773 596.058 83.44C596.751 83.0027 597.525 82.784 598.378 82.784ZM609.401 94H608.137L608.025 92.688C607.705 93.2107 607.337 93.5947 606.921 93.84C606.505 94.0747 605.999 94.192 605.401 94.192C604.665 94.192 604.089 93.968 603.673 93.52C603.257 93.072 603.049 92.4373 603.049 91.616V85.568H604.521V91.456C604.521 92.032 604.623 92.4427 604.825 92.688C605.028 92.9227 605.359 93.04 605.817 93.04C606.639 93.04 607.343 92.5547 607.929 91.584V85.568H609.401V94ZM616.106 85.376C616.405 85.376 616.682 85.408 616.938 85.472L616.666 86.912C616.41 86.848 616.165 86.816 615.93 86.816C615.407 86.816 614.986 87.008 614.666 87.392C614.346 87.776 614.095 88.3733 613.914 89.184V94H612.442V85.568H613.706L613.85 87.28C614.074 86.6507 614.378 86.176 614.762 85.856C615.146 85.536 615.594 85.376 616.106 85.376ZM622.278 85.376C622.576 85.376 622.854 85.408 623.11 85.472L622.838 86.912C622.582 86.848 622.336 86.816 622.102 86.816C621.579 86.816 621.158 87.008 620.838 87.392C620.518 87.776 620.267 88.3733 620.086 89.184V94H618.614V85.568H619.878L620.022 87.28C620.246 86.6507 620.55 86.176 620.934 85.856C621.318 85.536 621.766 85.376 622.278 85.376ZM630.669 89.536C630.669 89.7813 630.659 90.032 630.637 90.288H625.261C625.325 91.216 625.56 91.8987 625.965 92.336C626.371 92.7733 626.893 92.992 627.533 92.992C627.939 92.992 628.312 92.9333 628.653 92.816C628.995 92.6987 629.352 92.512 629.725 92.256L630.365 93.136C629.469 93.84 628.488 94.192 627.421 94.192C626.248 94.192 625.331 93.808 624.669 93.04C624.019 92.272 623.693 91.216 623.693 89.872C623.693 88.9973 623.832 88.224 624.109 87.552C624.397 86.8693 624.803 86.336 625.325 85.952C625.859 85.568 626.483 85.376 627.197 85.376C628.317 85.376 629.176 85.744 629.773 86.48C630.371 87.216 630.669 88.2347 630.669 89.536ZM629.213 89.104C629.213 88.272 629.048 87.6373 628.717 87.2C628.387 86.7627 627.891 86.544 627.229 86.544C626.024 86.544 625.368 87.4293 625.261 89.2H629.213V89.104ZM636.988 85.376C637.756 85.376 638.353 85.6053 638.78 86.064C639.217 86.5227 639.436 87.152 639.436 87.952V94H637.964V88.16C637.964 87.5627 637.852 87.1413 637.628 86.896C637.404 86.6507 637.073 86.528 636.636 86.528C636.188 86.528 635.793 86.656 635.452 86.912C635.111 87.168 634.791 87.536 634.492 88.016V94H633.02V85.568H634.284L634.412 86.816C634.711 86.368 635.079 86.016 635.516 85.76C635.964 85.504 636.455 85.376 636.988 85.376ZM646.651 93.616C646.096 94 645.467 94.192 644.763 94.192C644.048 94.192 643.488 93.9893 643.083 93.584C642.688 93.168 642.491 92.5707 642.491 91.792V86.704H641.019V85.568H642.491V83.664L643.963 83.488V85.568H645.963L645.803 86.704H643.963V91.728C643.963 92.1653 644.038 92.4853 644.187 92.688C644.347 92.88 644.608 92.976 644.971 92.976C645.302 92.976 645.675 92.864 646.091 92.64L646.651 93.616ZM654.011 82.976V92.672H658.539L658.363 94H652.491V82.976H654.011ZM663.141 85.376C664.325 85.376 665.242 85.7707 665.893 86.56C666.554 87.3493 666.885 88.4213 666.885 89.776C666.885 90.6507 666.736 91.424 666.437 92.096C666.138 92.7573 665.706 93.2747 665.141 93.648C664.576 94.0107 663.904 94.192 663.125 94.192C661.941 94.192 661.018 93.7973 660.357 93.008C659.696 92.2187 659.365 91.1467 659.365 89.792C659.365 88.9173 659.514 88.1493 659.813 87.488C660.112 86.816 660.544 86.2987 661.109 85.936C661.674 85.5627 662.352 85.376 663.141 85.376ZM663.141 86.56C661.68 86.56 660.949 87.6373 660.949 89.792C660.949 91.936 661.674 93.008 663.125 93.008C664.576 93.008 665.301 91.9307 665.301 89.776C665.301 87.632 664.581 86.56 663.141 86.56ZM672.389 85.376C672.89 85.376 673.349 85.4507 673.765 85.6C674.181 85.7387 674.581 85.968 674.965 86.288L674.261 87.216C673.962 87.0027 673.669 86.848 673.381 86.752C673.104 86.6453 672.794 86.592 672.453 86.592C671.77 86.592 671.237 86.864 670.853 87.408C670.48 87.952 670.293 88.7573 670.293 89.824C670.293 90.8907 670.48 91.68 670.853 92.192C671.226 92.6933 671.76 92.944 672.453 92.944C672.784 92.944 673.088 92.896 673.365 92.8C673.642 92.6933 673.952 92.528 674.293 92.304L674.965 93.264C674.197 93.8827 673.338 94.192 672.389 94.192C671.248 94.192 670.346 93.808 669.685 93.04C669.034 92.272 668.709 91.2107 668.709 89.856C668.709 88.96 668.858 88.176 669.157 87.504C669.456 86.832 669.877 86.3093 670.421 85.936C670.976 85.5627 671.632 85.376 672.389 85.376ZM682.481 92.032C682.481 92.3733 682.54 92.6293 682.657 92.8C682.775 92.96 682.951 93.0827 683.185 93.168L682.849 94.192C682.412 94.1387 682.06 94.016 681.793 93.824C681.527 93.632 681.329 93.3333 681.201 92.928C680.636 93.7707 679.799 94.192 678.689 94.192C677.857 94.192 677.201 93.9573 676.721 93.488C676.241 93.0187 676.001 92.4053 676.001 91.648C676.001 90.752 676.321 90.064 676.961 89.584C677.612 89.104 678.529 88.864 679.713 88.864H681.009V88.24C681.009 87.6427 680.865 87.216 680.577 86.96C680.289 86.704 679.847 86.576 679.249 86.576C678.631 86.576 677.873 86.7253 676.977 87.024L676.609 85.952C677.655 85.568 678.625 85.376 679.521 85.376C680.513 85.376 681.255 85.6213 681.745 86.112C682.236 86.592 682.481 87.28 682.481 88.176V92.032ZM679.025 93.088C679.868 93.088 680.529 92.6507 681.009 91.776V89.84H679.905C678.348 89.84 677.569 90.416 677.569 91.568C677.569 92.0693 677.692 92.448 677.937 92.704C678.183 92.96 678.545 93.088 679.025 93.088ZM689.76 93.616C689.206 94 688.576 94.192 687.872 94.192C687.158 94.192 686.598 93.9893 686.192 93.584C685.798 93.168 685.6 92.5707 685.6 91.792V86.704H684.128V85.568H685.6V83.664L687.072 83.488V85.568H689.072L688.912 86.704H687.072V91.728C687.072 92.1653 687.147 92.4853 687.296 92.688C687.456 92.88 687.718 92.976 688.08 92.976C688.411 92.976 688.784 92.864 689.2 92.64L689.76 93.616ZM692.758 85.568V94H691.286V85.568H692.758ZM692.006 81.52C692.315 81.52 692.566 81.616 692.758 81.808C692.95 82 693.046 82.24 693.046 82.528C693.046 82.816 692.95 83.056 692.758 83.248C692.566 83.4293 692.315 83.52 692.006 83.52C691.707 83.52 691.462 83.4293 691.27 83.248C691.078 83.056 690.982 82.816 690.982 82.528C690.982 82.24 691.078 82 691.27 81.808C691.462 81.616 691.707 81.52 692.006 81.52ZM698.969 85.376C700.153 85.376 701.071 85.7707 701.721 86.56C702.383 87.3493 702.713 88.4213 702.713 89.776C702.713 90.6507 702.564 91.424 702.265 92.096C701.967 92.7573 701.535 93.2747 700.969 93.648C700.404 94.0107 699.732 94.192 698.953 94.192C697.769 94.192 696.847 93.7973 696.185 93.008C695.524 92.2187 695.193 91.1467 695.193 89.792C695.193 88.9173 695.343 88.1493 695.641 87.488C695.94 86.816 696.372 86.2987 696.937 85.936C697.503 85.5627 698.18 85.376 698.969 85.376ZM698.969 86.56C697.508 86.56 696.777 87.6373 696.777 89.792C696.777 91.936 697.503 93.008 698.953 93.008C700.404 93.008 701.129 91.9307 701.129 89.776C701.129 87.632 700.409 86.56 698.969 86.56ZM709.113 85.376C709.881 85.376 710.478 85.6053 710.905 86.064C711.342 86.5227 711.561 87.152 711.561 87.952V94H710.089V88.16C710.089 87.5627 709.977 87.1413 709.753 86.896C709.529 86.6507 709.198 86.528 708.761 86.528C708.313 86.528 707.918 86.656 707.577 86.912C707.236 87.168 706.916 87.536 706.617 88.016V94H705.145V85.568H706.409L706.537 86.816C706.836 86.368 707.204 86.016 707.641 85.76C708.089 85.504 708.58 85.376 709.113 85.376Z" fill="white"/>
</svg>
